<?xml version="1.0" encoding="utf-8"?>
<!-- Generator: Adobe Illustrator 27.9.0, SVG Export Plug-In . SVG Version: 6.00 Build 0)  -->
<svg version="1.1" id="Layer_1" xmlns="http://www.w3.org/2000/svg" xmlns:xlink="http://www.w3.org/1999/xlink" x="0px" y="0px"
	 viewBox="0 0 70 70" style="enable-background:new 0 0 70 70;" xml:space="preserve">
<style type="text/css">
	.st0{opacity:0.44;fill:#FFFFFF;}
	.st1{fill:#FFFFFF;}
</style>
<g>
	<path class="st0" d="M12.88,28.2l0.05-0.42C12.71,28,12.88,28.2,12.88,28.2z"/>
	<path class="st1" d="M16.98,34.26c0,0,2.62-1.89,2.21-4.59c-0.41-2.71-3.22-2.51-4.21-2.19l-1.81,0.42l-0.06-1.01l-1.29-0.17
		l-0.33,2.46l-1.8,1.15c0,0-0.9,0.71-0.37,2.41c0.21,0.67,0.78,0.79,0.78,0.79L9.3,40.48l-1.45,0.13H7.7l-0.02,0.16l1.26,0.05
		l0.36,0.03l-0.04,0.66l-0.32-0.03l0.17-0.66H8.94c0,0-0.34,0.68-0.68,0.74c-0.34,0.06-0.83,0.08-0.83,0.08l0,0.14l1.8,0.06
		l-0.08,1.81c0,0-0.02,1.59,0.97,1.34c1-0.25,0.75-1.87,0.8-2.51c0.07,0.01,6.77-1.5,6.86-1.78c0,0,3.74-0.62,3.74-4.31
		C21.52,33.38,16.98,34.26,16.98,34.26z M12.64,31.27c0,0,5.03-2.14,3.86-0.24c-1.17,1.91-4.02,3.32-4.02,3.32L12.64,31.27z
		 M18.06,37.53c-2.52,1.55-6.21,1.88-6.21,1.88l0.05-1.54C11.91,37.87,20.58,35.98,18.06,37.53z"/>
	<g>
		<path class="st1" d="M26.65,30.7c-2.17-0.12-5.28,0.57-5.25,3.79c0,0-0.57,4,2.99,4.57c3.57,0.57,5.21-0.89,5.21-0.89
			s1.48-1.4,1.39-3.68C30.92,32.21,28.83,30.82,26.65,30.7z M27.23,36.35c-0.41,0.02-1.8,0.11-3.16-0.1s-1.85-1.85-0.29-2.38
			c1.56-0.53,4.14,0,4.14,0s1.35,0.41,1.35,1.06C29.28,35.87,27.97,36.31,27.23,36.35z"/>
	</g>
	<path class="st1" d="M42.64,34.77c-1.32-1.53-4.51-5.21-6.35-5.93c-0.32-0.13-0.67-0.08-0.96,0.1c-4.39,2.8-4.82,10.08-4.82,10.08
		s-0.11,0.69,0.7,0.74c0.34,0.02,0.67-0.23,0.75-1.03c0.47-4.39,2.57-5.92,3.46-6.5c0.33-0.21,1.18-0.22,1.45,0.06
		c1.35,1.4,5.24,5.86,6.07,5.86c1.52,0,2.54-1.63,2.62-2.58c0.07-0.78-0.13-5.21-0.14-6.71c0-0.43-0.13-0.85-0.37-1.21
		c-0.26-0.39-0.49-0.65-0.96-0.61c-0.9,0.08-0.86,1.56-0.86,1.56l0.3,5.85C43.5,34.91,42.94,35.11,42.64,34.77z"/>
	<path class="st1" d="M48.71,32.5c0,0-0.12-0.82-0.98-0.86c-0.86-0.04-0.9,1.76-0.9,1.76V38c0,0-1.93,0.82-3.77,0.9
		c0,0-0.57,0.21-0.21,0.86c0.37,0.65,0.86,0.45,0.86,0.45s-1.03,0.37-0.98,0.94c0.04,0.57,1.89,0.29,1.89,0.29l1.85-0.62l0.41,0.08
		c0,0-0.16,0.86,0.29,0.82c0.45-0.04,1.09-0.12,1.56-1.56c1.09-0.41,3.87-1.58,5.25-2.34c2.73-1.5,2.63-2.16,2.81-3.89
		c0.06-0.54,0.02-1.09-0.14-1.61c-0.4-1.36-1.69-3.47-5.74-4.37c-4.26-0.7-4.28,0.25-3.81,1.03c0.2,0.33,0.52,0.55,0.89,0.63
		c1.31,0.28,4.88,1.17,6.27,2.73c1.72,1.93-1.64,3.25-1.64,3.25l-3.98,1.55L48.71,32.5z"/>
	<path class="st1" d="M59.7,28.77c0,0,0-1.48-0.92-1.41s-1.17,2.03-1.17,2.03l0.25,8.73c0,0-0.12,1.5,1.41,1.64
		c1,0.09,1.25-1.17,1.29-2.07c0.02-0.45-0.08-0.88-0.25-1.3c-0.12-0.3-0.25-0.76-0.25-1.41C60.07,33.69,59.7,28.77,59.7,28.77z"/>
	<path class="st1" d="M59.44,23.32c-0.26-0.39-0.82-0.44-1.19-0.14c-0.36,0.3-0.64,0.77-0.64,1.41c0,0.63,0.12,1.54,1.11,1.66
		c0.98,0.12,1.05-0.92,1.05-1.69C59.76,24.12,59.66,23.65,59.44,23.32z"/>
</g>
<g>
	<path class="st1" d="M35,3c17.64,0,32,14.36,32,32S52.64,67,35,67S3,52.64,3,35S17.36,3,35,3 M35,0C15.67,0,0,15.67,0,35
		s15.67,35,35,35s35-15.67,35-35S54.33,0,35,0L35,0z"/>
</g>
</svg>
