<?xml version="1.0" encoding="utf-8"?>
<!-- Generator: Adobe Illustrator 27.9.0, SVG Export Plug-In . SVG Version: 6.00 Build 0)  -->
<svg version="1.1" id="Layer_1" xmlns="http://www.w3.org/2000/svg" xmlns:xlink="http://www.w3.org/1999/xlink" x="0px" y="0px"
	 viewBox="0 0 70 70" style="enable-background:new 0 0 70 70;" xml:space="preserve">
<style type="text/css">
	.st0{fill:#FFFFFF;}
</style>
<g>
	<path class="st0" d="M35,3c17.64,0,32,14.36,32,32S52.64,67,35,67S3,52.64,3,35S17.36,3,35,3 M35,0C15.67,0,0,15.67,0,35
		s15.67,35,35,35s35-15.67,35-35S54.33,0,35,0L35,0z"/>
</g>
<g>
	<path class="st0" d="M55.47,34.29h0.21c0.74,0,1.35-0.61,1.35-1.35v-3.8c0-0.74-0.61-1.35-1.35-1.35h-0.21
		c-0.74,0-1.35,0.61-1.35,1.35v3.8C54.12,33.68,54.73,34.29,55.47,34.29z"/>
	<rect x="19.24" y="28.11" class="st0" width="0.64" height="5.26"/>
	<rect x="37.54" y="28.11" class="st0" width="0.64" height="5.26"/>
	<path class="st0" d="M60.3,25.24c-0.61-0.55-1.25-1.35-2.97-1.62c0,0-1.95-0.2-3-0.04c-0.64,0.1-1.62,0.45-2.3,0.95l-0.07,0.05
		l-1.75-1.19H34.06l-0.76,1.06v-1.02h-7.54l-0.84,0.96v-0.96h-9.17L15,24.38v-0.96H5.62v17.45l5.18,5.74h35.45c0,0,2.99,0,4.22-1.2
		l0.24,0.27c0.53,0.59,1.28,0.93,2.07,0.93h8.74c0.76,0,1.49-0.3,2.02-0.84c0.54-0.54,0.84-1.26,0.84-2.02V29.68L60.3,25.24z
		 M14.17,28.19h-3.36v9.39h3.36v4.17H7.54l-1-0.96V24.12h7.63V28.19z M24.03,41.75h-4.15V37.6h-0.64v4.15h-4.15L15,25.58l1.12-1.46
		h7.91V41.75z M32.42,28.11h-3.43v13.64h-4.07V25.58l1.12-1.46h6.38V28.11z M42.33,41.75h-4.15V37.6h-0.64v4.15H33.4l-0.1-16.17
		l1.12-1.46h7.91V41.75z M49.97,36.92c0,1.38-0.49,2.75-1.47,3.73c-1.38,1.38-2.96,1.38-2.96,1.38h-2.55v-3.91h1.49
		c0.45,0,0.88-0.18,1.2-0.5c0.32-0.32,0.49-0.75,0.49-1.2v-8.71h-3.19v-3.59h6.98V36.92z M50.47,28.52c0-2.42,1.98-4.4,4.4-4.4h1.41
		c2.42,0,4.4,1.98,4.4,4.4v5.03c0,2.42-1.98,4.4-4.4,4.4h-1.41c-2.42,0-4.4-1.98-4.4-4.4V28.52z M61.46,43.5
		c0,0-0.28,2.47-2.75,2.47c-2.47,0-6.02,0-6.02,0s-2.21-0.4-2.21-2.21c0-1.81,0-2.01,0-2.01h3.63v-3.32h3.61v3.32h3.75V43.5z"/>
</g>
</svg>
