<?xml version="1.0" encoding="UTF-8"?>
<svg id="Capa_1" data-name="Capa 1" xmlns="http://www.w3.org/2000/svg" xmlns:xlink="http://www.w3.org/1999/xlink" viewBox="0 0 180.2 136.44">
  <defs>
    <style>
      .cls-1 {
        fill: url(#linear-gradient);
      }

      .cls-1, .cls-2, .cls-3, .cls-4 {
        stroke-width: 0px;
      }

      .cls-2 {
        fill: url(#linear-gradient-2);
      }

      .cls-3 {
        fill: #fc2b5f;
      }

      .cls-4 {
        fill: #fff;
      }
    </style>
    <linearGradient id="linear-gradient" x1="22.62" y1="24.13" x2="174.19" y2="24.13" gradientUnits="userSpaceOnUse">
      <stop offset="0" stop-color="#0013ff"/>
      <stop offset=".04" stop-color="#1815ef"/>
      <stop offset=".16" stop-color="#541ac9"/>
      <stop offset=".28" stop-color="#881fa9"/>
      <stop offset=".39" stop-color="#b3238e"/>
      <stop offset=".5" stop-color="#d42679"/>
      <stop offset=".6" stop-color="#eb286b"/>
      <stop offset=".69" stop-color="#fa2962"/>
      <stop offset=".78" stop-color="#ff2a5f"/>
    </linearGradient>
    <linearGradient id="linear-gradient-2" x1="22.62" y1="107.17" x2="174.19" y2="107.17" xlink:href="#linear-gradient"/>
  </defs>
  <path class="cls-3" d="M36.3,19.39h1.03c0,6.71,5.44,12.15,12.15,12.15v1.03c-6.71,0-12.15,5.44-12.15,12.15h-1.03c0-6.71-5.44-12.15-12.15-12.15v-1.03c6.71,0,12.15-5.44,12.15-12.15Z"/>
  <g>
    <path class="cls-1" d="M82.07,42.12c18.63-14.73,40.68-28.78,63.37-32.25,11.87-1.65,24.92,1.74,22.72,18.59-1.03,6.5-3.6,13.19-7.16,19.79h4.68c5.56-9.27,9-18.63,8.45-27.24-.51-8.24-5.56-14.98-12.17-17.96-13.04-5.95-29.65-2.14-42.63,2.45-21.99,8.08-44.67,23.43-62.92,42.75h18.35c2.43-2.11,4.87-4.15,7.3-6.13Z"/>
    <path class="cls-2" d="M116.63,98.48c-18.49,14.76-52.28,35.96-75.15,31.5-14.65-3.41-12.91-18.59-7.54-30.75.28-.62.57-1.23.87-1.85h-9.54c-1.75,5.54-2.81,11.33-2.63,17.27.2,8.17,4.05,15.88,10.66,19.26,6.24,3.34,13.82,2.83,20.11,1.5,8.07-1.74,15.61-4.99,23.03-8.7,14.45-7.45,27.96-16.74,40.88-27.12,6.37-5.11,15.35-12.75,24.29-21.71h-2.77c-7.67,8.16-15.61,15.29-22.2,20.59Z"/>
  </g>
  <g>
    <path class="cls-4" d="M2.44,71.51c-.37-.37-.56-.81-.56-1.32v-16.34c0-.51.18-.94.56-1.32.37-.37.81-.56,1.32-.56h13.65v3.61H4.54l.95-.95v14.77l-.95-.95h12.87v3.61H3.75c-.51,0-.95-.19-1.32-.56ZM4.84,60.21h11.75v3.64H4.84v-3.64Z"/>
    <path class="cls-4" d="M36.13,72.18c-.25-.13-.46-.28-.62-.46l-11.35-13.9.62-.19v14.44h-3.61v-18.62c0-.51.18-.94.53-1.29.35-.35.78-.53,1.29-.53.27,0,.53.06.77.18s.45.28.61.48l11.34,14.09-.62.22v-14.6h3.64v18.56c0,.51-.18.94-.53,1.29-.35.35-.78.53-1.29.53-.27,0-.53-.06-.79-.19Z"/>
    <path class="cls-4" d="M49.8,71.54c-.35-.35-.53-.77-.53-1.26v-16.5c0-.49.17-.91.5-1.26.33-.35.76-.53,1.26-.53h6.38c1.83,0,3.51.45,5.06,1.34,1.55.9,2.77,2.11,3.68,3.65.91,1.54,1.36,3.22,1.36,5.05s-.45,3.51-1.36,5.05c-.91,1.54-2.13,2.75-3.68,3.65-1.55.9-3.23,1.34-5.06,1.34h-6.35c-.49,0-.91-.18-1.26-.53ZM51.93,68.46h5.48c1.18,0,2.26-.28,3.24-.85.99-.57,1.77-1.35,2.35-2.33.58-.99.87-2.07.87-3.24s-.29-2.25-.87-3.23c-.58-.98-1.36-1.75-2.35-2.33s-2.07-.87-3.24-.87h-5.48l.95-.95v14.77l-.95-.95Z"/>
    <path class="cls-4" d="M68.65,51.99h15.55v3.61h-15.55v-3.61ZM68.65,68.46h15.55v3.61h-15.55v-3.61ZM74.62,53.07h3.61v18.1h-3.61v-18.1Z"/>
    <path class="cls-4" d="M87.99,52.54c.37-.37.81-.56,1.32-.56h8.17c1.23,0,2.37.31,3.42.92,1.05.62,1.88,1.45,2.48,2.51.61,1.06.91,2.2.91,3.43s-.3,2.34-.91,3.34c-.61,1-1.43,1.77-2.47,2.33-1.04.56-2.19.84-3.43.84h-7v-3.37h7c.6,0,1.13-.14,1.61-.42.48-.28.86-.66,1.15-1.14s.43-1.01.43-1.59-.15-1.12-.43-1.61-.68-.9-1.17-1.19c-.49-.3-1.02-.45-1.6-.45h-7.38l.95-.95v17.42h-3.61v-18.21c0-.51.19-.94.56-1.32ZM95,64.53l2.85-1.76,6.57,9.31h-4.18l-5.24-7.55Z"/>
    <path class="cls-4" d="M107.53,71.51c-.37-.37-.56-.81-.56-1.32v-16.34c0-.51.18-.94.56-1.32.37-.37.81-.56,1.32-.56h13.65v3.61h-12.87l.95-.95v14.77l-.95-.95h12.87v3.61h-13.65c-.51,0-.95-.19-1.32-.56ZM109.93,60.21h11.75v3.64h-11.75v-3.64Z"/>
    <path class="cls-4" d="M128.7,70.94c-1.58-.93-2.84-2.19-3.76-3.79-.92-1.59-1.38-3.33-1.38-5.21s.46-3.64,1.38-5.21c.92-1.57,2.18-2.82,3.76-3.75s3.31-1.38,5.17-1.38c1.54,0,2.99.33,4.36.98s2.53,1.55,3.49,2.69l-2.74,2.36c-.62-.74-1.37-1.33-2.25-1.76-.89-.43-1.84-.65-2.85-.65-1.21,0-2.33.3-3.34.91-1.01.61-1.82,1.42-2.43,2.44-.61,1.02-.91,2.15-.91,3.38s.3,2.36.91,3.39c.61,1.03,1.42,1.85,2.43,2.47,1.01.62,2.13.92,3.34.92,1.12,0,2.16-.23,3.11-.71.95-.47,1.72-1.13,2.32-1.98l2.88,2.2c-.94,1.28-2.13,2.29-3.58,3.01-1.45.72-3.02,1.09-4.72,1.09-1.86,0-3.59-.47-5.17-1.4Z"/>
    <path class="cls-4" d="M142.15,51.99h17.18v3.61h-17.18v-3.61ZM148.93,52.99h3.61v19.08h-3.61v-19.08Z"/>
    <path class="cls-4" d="M164.72,70.94c-1.58-.93-2.84-2.19-3.76-3.79-.92-1.59-1.38-3.34-1.38-5.24s.46-3.61,1.38-5.18c.92-1.57,2.17-2.82,3.75-3.75s3.3-1.38,5.18-1.38,3.56.46,5.14,1.37c1.58.91,2.84,2.16,3.77,3.73s1.4,3.32,1.4,5.24-.46,3.62-1.38,5.21c-.92,1.59-2.17,2.85-3.75,3.79-1.57.93-3.3,1.4-5.18,1.4s-3.59-.47-5.17-1.4ZM173.25,67.84c1.01-.62,1.82-1.44,2.43-2.47.61-1.03.91-2.17.91-3.42s-.3-2.36-.9-3.38c-.6-1.02-1.41-1.84-2.43-2.44-1.02-.61-2.15-.91-3.38-.91s-2.35.3-3.37.91c-1.01.61-1.82,1.42-2.42,2.44-.6,1.02-.9,2.15-.9,3.38s.3,2.39.9,3.42c.6,1.03,1.41,1.85,2.43,2.47,1.02.62,2.14.92,3.35.92s2.35-.31,3.37-.92Z"/>
    <path class="cls-4" d="M2.8,92.81c-.97-.24-1.9-.6-2.8-1.08l.7-1.44c.8.42,1.63.74,2.48.96.85.22,1.75.34,2.68.35.95.02,1.77-.06,2.47-.24.7-.19,1.24-.45,1.62-.8s.58-.77.59-1.25c.01-.6-.17-1.08-.56-1.42-.38-.34-.87-.59-1.47-.74-.6-.15-1.38-.3-2.36-.43-1.28-.16-2.29-.33-3.03-.52-.74-.18-1.38-.53-1.92-1.04-.54-.51-.8-1.23-.78-2.18.01-.8.28-1.5.8-2.09.52-.59,1.25-1.04,2.16-1.33.92-.3,1.96-.43,3.12-.41.92.01,1.84.12,2.75.32s1.75.48,2.53.84l-.65,1.42c-1.46-.65-3-1-4.64-1.04-.9-.02-1.67.04-2.32.2s-1.16.42-1.53.77c-.37.35-.56.79-.57,1.32-.02.55.15.98.54,1.27.38.29.83.49,1.33.59.5.1,1.27.23,2.29.36,1.22.15,2.24.34,3.07.56.83.23,1.52.63,2.08,1.19.56.57.83,1.35.8,2.35-.01.8-.29,1.5-.84,2.1-.55.6-1.3,1.05-2.26,1.36s-2.04.45-3.25.43c-1.06-.02-2.07-.16-3.04-.4Z"/>
    <path class="cls-4" d="M13.93,79.36h11.6v1.61h-11.6v-1.61ZM18.92,79.8h1.61v13.24h-1.61v-13.24Z"/>
    <path class="cls-4" d="M27.45,79.62c.17-.17.39-.26.65-.26h5.59c.8,0,1.54.2,2.21.61.67.41,1.21.95,1.6,1.64.39.68.59,1.43.59,2.23s-.2,1.5-.59,2.15-.93,1.15-1.6,1.52-1.41.55-2.21.55h-5.23v-1.54h5.23c.52,0,.99-.12,1.42-.36.43-.24.76-.57,1-.98.24-.41.36-.86.36-1.34,0-.51-.12-.98-.37-1.42s-.58-.8-1.01-1.05c-.43-.26-.89-.39-1.4-.39h-5.35l.46-.46v12.54h-1.61v-12.8c0-.25.09-.46.26-.63ZM32.52,87.61l1.41-.61,4.22,6.05h-1.85l-3.77-5.44Z"/>
    <path class="cls-4" d="M40.73,92.78c-.17-.17-.26-.38-.26-.63v-11.91c0-.25.09-.46.26-.63.17-.17.39-.26.65-.26h9.56v1.61h-9.32l.46-.46v11.39l-.46-.46h9.32v1.61h-9.56c-.26,0-.47-.09-.65-.26ZM41.75,85.4h8.64v1.59h-8.64v-1.59Z"/>
    <path class="cls-4" d="M58.26,79.28c.15-.1.31-.15.48-.15s.33.05.47.15c.14.1.25.23.32.39l5.66,13.37h-1.81l-4.92-11.65h.55l-4.99,11.65h-1.79l5.7-13.37c.07-.16.18-.29.33-.39Z"/>
    <path class="cls-4" d="M66.74,79.37c.17-.17.37-.25.62-.25.28,0,.51.12.69.35l5.25,7.94h-.48l5.25-7.94c.17-.23.4-.35.68-.35.25,0,.45.08.62.25s.25.37.25.6v13.08h-1.61v-11.6l.44.06-5.4,8.23-5.4-8.23.44-.06v11.6h-1.61v-13.08c0-.23.08-.43.25-.6Z"/>
  </g>
</svg>