<?xml version="1.0" encoding="UTF-8"?>
<svg id="Capa_1" data-name="Capa 1" xmlns="http://www.w3.org/2000/svg" viewBox="0 0 70 70">
  <defs>
    <style>
      .cls-1 {
        fill: #fff;
        stroke-width: 0px;
      }
    </style>
  </defs>
  <g>
    <path class="cls-1" d="M56.74,45.51H13.26c-.19,0-.34.15-.34.34h0c0,2.06,1.67,3.74,3.74,3.74h36.68c2.06,0,3.74-1.67,3.74-3.74h0c0-.19-.15-.34-.34-.34Z"/>
    <path class="cls-1" d="M27.89,26.13c.13-1.92.83-3.39,1.83-4.47-3.35-3.1-10.53-1.54-11.68,4.68l-3.46,18.65h12.04l1.27-18.86Z"/>
    <path class="cls-1" d="M43.38,44.98h12.03l-3.46-18.65c-1.16-6.23-8.33-7.79-11.68-4.68,1,1.08,1.7,2.56,1.83,4.47l1.27,18.86Z"/>
    <path class="cls-1" d="M27.03,44.98h15.94l-1.27-18.83c-.57-8.39-12.83-8.39-13.4,0l-1.27,18.83ZM35.06,28.81c2.37,0,4.45,1.11,5.2,3.2l-2.53.73c-.62-1.21-1.64-1.53-2.67-1.53-1.73,0-3.05,1.37-3.05,3.16s1.35,3.18,3.13,3.18c1.4,0,2.42-.73,2.82-1.91h-2.62v-2.23h5.23c.05.38.06.7.06.97,0,3.23-2.31,5.55-5.52,5.55s-5.74-2.43-5.74-5.57,2.5-5.57,5.69-5.57Z"/>
  </g>
  <path class="cls-1" d="M35,70C15.7,70,0,54.3,0,35S15.7,0,35,0s35,15.7,35,35-15.7,35-35,35ZM35,2.26C16.95,2.26,2.26,16.95,2.26,35s14.69,32.74,32.74,32.74,32.74-14.69,32.74-32.74S53.05,2.26,35,2.26Z"/>
</svg>