<?xml version="1.0" encoding="UTF-8"?>
<svg id="Capa_1" data-name="Capa 1" xmlns="http://www.w3.org/2000/svg" viewBox="0 0 70 70">
  <defs>
    <style>
      .cls-1 {
        fill: #fff;
        stroke-width: 0px;
      }
    </style>
  </defs>
  <path class="cls-1" d="M35,0C15.67,0,0,15.67,0,35s15.67,35,35,35,35-15.67,35-35S54.33,0,35,0ZM55.52,43.14c0,6.8-5.53,12.33-12.33,12.33h-16.38c-6.8,0-12.33-5.53-12.33-12.33v-16.38c0-6.8,5.53-12.33,12.33-12.33h16.38c6.8,0,12.33,5.53,12.33,12.33v16.38Z"/>
  <path class="cls-1" d="M43.19,18.29h-16.38c-4.67,0-8.47,3.8-8.47,8.47v16.38c0,4.67,3.8,8.47,8.47,8.47h16.38c4.67,0,8.47-3.8,8.47-8.47v-16.38c0-4.67-3.8-8.47-8.47-8.47ZM35.17,45.06c-5.57,0-10.11-4.53-10.11-10.11s4.53-10.11,10.11-10.11,10.11,4.53,10.11,10.11-4.53,10.11-10.11,10.11ZM45.86,26.57c-1.33,0-2.41-1.08-2.41-2.41s1.08-2.41,2.41-2.41,2.41,1.08,2.41,2.41-1.08,2.41-2.41,2.41Z"/>
  <path class="cls-1" d="M35.17,28.48c-3.57,0-6.47,2.9-6.47,6.47s2.9,6.47,6.47,6.47,6.47-2.9,6.47-6.47-2.9-6.47-6.47-6.47Z"/>
</svg>