<?xml version="1.0" encoding="UTF-8"?>
<svg id="Capa_1" data-name="Capa 1" xmlns="http://www.w3.org/2000/svg" viewBox="0 0 70 70">
  <defs>
    <style>
      .cls-1 {
        fill: #fff;
        stroke-width: 0px;
      }
    </style>
  </defs>
  <path class="cls-1" d="M35,70C15.7,70,0,54.3,0,35S15.7,0,35,0s35,15.7,35,35-15.7,35-35,35ZM35,2.24C16.94,2.24,2.24,16.94,2.24,35s14.7,32.76,32.76,32.76,32.76-14.7,32.76-32.76S53.06,2.24,35,2.24Z"/>
  <polygon class="cls-1" points="38.52 23.58 38.4 23.58 36.93 23.58 32.06 23.58 21.54 45.13 27.89 45.13 37.65 25.13 46.9 45.13 48.49 45.13 38.52 23.58"/>
</svg>