<?xml version="1.0" encoding="UTF-8"?>
<svg id="Capa_1" data-name="Capa 1" xmlns="http://www.w3.org/2000/svg" viewBox="0 0 70 70">
  <defs>
    <style>
      .cls-1 {
        fill: #fff;
        stroke-width: 0px;
      }
    </style>
  </defs>
  <path class="cls-1" d="M35,70C15.7,70,0,54.3,0,35S15.7,0,35,0s35,15.7,35,35-15.7,35-35,35ZM35,2.26C16.95,2.26,2.26,16.95,2.26,35s14.69,32.74,32.74,32.74,32.74-14.69,32.74-32.74S53.05,2.26,35,2.26Z"/>
  <g>
    <path class="cls-1" d="M11.23,35.85c0-1.46,0-2.91,0-4.37,0-.24,0-.24.29-.24,2.45,0,4.89,0,7.34,0,.22,0,.25.03.25.21,0,1.73,0,3.46,0,5.2,0,.23,0,.24.28.25.23,0,.46,0,.69,0,.2,0,.4,0,.6.01.09,0,.13.04.13.11,0,.04,0,.08,0,.11,0,.98.01,1.96.01,2.94,0,.1-.01.2-.01.3,0,.07-.05.1-.13.11-.06,0-.12,0-.18,0-2.99,0-5.99,0-8.98,0-.29,0-.29,0-.29-.24,0-1.46,0-2.92,0-4.38Z"/>
    <path class="cls-1" d="M49.28,33.8c0-.76,0-1.53,0-2.29,0-.24,0-.25.29-.26.26-.01.53,0,.79,0,.94,0,1.88,0,2.82,0,.2,0,.21,0,.21.17,0,1.54.02,3.08,0,4.62-.01,1.01-.34,1.96-.99,2.83-.57.75-1.32,1.34-2.34,1.66-1.07.33-2.13.27-3.14-.18-1.09-.48-1.79-1.23-2.28-2.14-.28-.51-.45-1.05-.53-1.6-.04-.25-.06-.5-.06-.75,0-1.48,0-2.96,0-4.44,0-.15.01-.16.21-.16,1.17,0,2.35,0,3.52,0,.33,0,.34,0,.36.27.02.32.02.64.02.96,0,1.16,0,2.32,0,3.48,0,.14,0,.29.06.43.07.18.25.3.47.31.24.01.44-.09.54-.27.05-.09.07-.19.07-.29,0-.77,0-1.55,0-2.32Z"/>
    <path class="cls-1" d="M27.4,33.94c0-.8,0-1.59,0-2.39,0-.33.04-.3.37-.31,1.18,0,2.36,0,3.54,0,.17,0,.19.01.19.15,0,1.54.02,3.07,0,4.61-.02,1.04-.34,2.01-1.02,2.9-.59.76-1.37,1.36-2.43,1.65-1.04.29-2.05.22-3.02-.22-.93-.41-1.59-1.03-2.08-1.79-.38-.59-.6-1.21-.72-1.87-.05-.28-.07-.56-.07-.85,0-1.48,0-2.95,0-4.43,0-.16,0-.16.2-.16,1.2,0,2.4,0,3.6,0,.05,0,.09,0,.14,0,.09,0,.13.05.14.12.01.09.02.18.02.26,0,1.51,0,3.01,0,4.52,0,.12-.01.25.03.37.08.22.25.4.6.38.17,0,.28-.08.38-.19.1-.12.14-.25.14-.4,0-.79,0-1.57,0-2.36h0Z"/>
    <path class="cls-1" d="M38.02,31.24c1.58,0,3.17,0,4.75,0,.02,0,.04,0,.06,0,.13,0,.15.03.09.12-.05.08-.1.15-.15.22-.96,1.32-1.93,2.64-2.89,3.96-.15.2-.3.4-.44.61-.01.02-.03.04-.04.06-.09.14-.05.21.15.21.74,0,1.48,0,2.22,0,.11,0,.22,0,.33.02.11,0,.17.05.17.14,0,.04,0,.09,0,.13,0,1.17,0,2.34,0,3.51q0,.27-.33.27c-2.98,0-5.97,0-8.95,0-.07,0-.15,0-.22,0-.16-.02-.22-.09-.15-.22.05-.1.12-.2.19-.29.71-1.02,1.43-2.04,2.14-3.06.36-.51.72-1.03,1.08-1.55.05-.07.09-.13.12-.2.04-.09,0-.13-.11-.13-.25,0-.51,0-.76,0-.63,0-1.27,0-1.9,0-.32,0-.32,0-.35-.26-.02-.15-.01-.3-.01-.45,0-.89,0-1.79,0-2.68,0-.09.01-.19.02-.28,0-.08.05-.11.14-.11.13,0,.26,0,.39,0,1.48,0,2.97,0,4.45,0h0Z"/>
    <path class="cls-1" d="M56.76,31.24c.61,0,1.23,0,1.84,0,.21,0,.24.02.21.19-.08.66-.14,1.33-.24,1.99-.06.41-.09.83-.15,1.25-.06.41-.11.81-.14,1.22-.04.45-.14.9-.18,1.35,0,.13-.04.15-.19.15-.78,0-1.56,0-2.35,0-.17,0-.18-.01-.19-.15-.04-.32-.08-.63-.12-.95-.04-.32-.07-.65-.11-.98-.07-.57-.14-1.14-.2-1.72-.07-.63-.16-1.27-.22-1.9,0-.1-.03-.21-.04-.31-.01-.11.01-.13.14-.13.28,0,.55,0,.83,0,.36,0,.73,0,1.09,0h0Z"/>
    <path class="cls-1" d="M57.58,39.66c.08-.22.16-.43.23-.64.03-.1.06-.19.09-.29.01-.04.04-.08.1-.08.11,0,.22-.02.33,0,.1,0,.12.04.09.12-.11.31-.22.62-.33.93-.08.22-.17.44-.23.66-.03.11-.08.13-.22.12-.03,0-.06,0-.09,0-.23,0-.23,0-.29-.18-.18-.51-.36-1.03-.54-1.54-.03-.09-.02-.11.1-.11.08,0,.17,0,.25,0,.1-.01.14.03.17.1.09.28.19.56.28.84,0,.02,0,.05.06.08Z"/>
    <path class="cls-1" d="M55.56,39.79c0-.19,0-.39,0-.58,0-.07-.03-.1-.11-.09-.01,0-.02,0-.03,0q-.27,0-.26-.23c0-.22,0-.22.27-.24.31-.02.61,0,.92-.01.11,0,.16.03.15.12,0,.08,0,.17,0,.25,0,.06-.03.1-.12.1-.04,0-.08,0-.13,0-.17,0-.19.02-.18.16.03.36,0,.72.01,1.08,0,.09-.04.13-.15.12-.08,0-.17,0-.25,0-.08,0-.11-.03-.11-.1,0-.19,0-.39,0-.58,0,0,0,0,0,0Z"/>
  </g>
</svg>