<?xml version="1.0" encoding="UTF-8"?>
<svg id="Capa_1" data-name="Capa 1" xmlns="http://www.w3.org/2000/svg" viewBox="0 0 70 70">
  <defs>
    <style>
      .cls-1 {
        fill: #fff;
        stroke-width: 0px;
      }
    </style>
  </defs>
  <g>
    <path class="cls-1" d="M51.33,30.29v2.08l.16-.02c.6-.08.94-.67.94-1.21,0-.7-.43-.93-1.1-.84Z"/>
    <path class="cls-1" d="M17.88,37.69c-.07,0-.12.03-.18.04v1.66c.07,0,.13,0,.2-.01.54-.07.97-.39.97-.97s-.44-.78-.98-.71Z"/>
    <path class="cls-1" d="M39.93,31.92v4.43c1.1-.18,1.25-1.49,1.25-2.34s-.17-2.22-1.25-2.09Z"/>
    <path class="cls-1" d="M11.66,30.27v15.05l46.75-5.71v-14.95l-46.75,5.61ZM18.63,41.16l-3.29.41v-8.71l2.73-.34c.64-.08,1.31-.1,1.87.16.74.34,1.15,1.08,1.15,1.93,0,1.06-.56,1.75-1.62,1.98,1.16,0,1.79.56,1.79,1.75,0,1.54-1.12,2.63-2.62,2.82ZM25.65,40.27l-4.11.51v-8.71l2.35-.29v6.62l1.76-.22v2.09ZM30.27,32.99l-2.01.25v1.27l1.8-.23v1.97l-1.8.23v1.33l2.01-.25v2.09l-4.36.55v-8.71l4.36-.55v2.05ZM36.88,38.84l-2.25.28c-.61-1.58-1.29-3.14-1.78-4.79.07.92.14,1.85.14,2.78v2.22l-2.25.28v-8.71l2.25-.28,1.17,2.91c.27.68.5,1.4.72,2.1-.13-1.05-.26-2.1-.26-3.18v-2.04l2.25-.28v8.71ZM42.99,36.4c-.72,1.38-1.8,1.9-3.21,2.07l-2.19.27v-8.71l2.02-.25c2.66-.33,3.98,1.34,3.98,3.86,0,.93-.14,1.88-.6,2.75ZM48.36,30.73l-2.01.25v1.27l1.8-.23v1.97l-1.8.23v1.33l2.01-.25v2.09l-4.36.55v-8.71l4.36-.55v2.05ZM52.63,36.87c-.44-1.15-.9-2.29-1.33-3.45.03.38.04.77.04,1.14v2.47l-2.35.29v-8.71l2.4-.3c.6-.08,1.25-.09,1.81.07,1.04.31,1.57,1.32,1.57,2.41,0,1.02-.4,1.8-1.34,2.35l1.75,3.4-2.55.32Z"/>
    <path class="cls-1" d="M17.84,35.94c.48-.06.93-.34.93-.87s-.35-.71-.84-.65c-.08,0-.16.02-.23.04v1.49c.05,0,.09,0,.14,0Z"/>
  </g>
  <path class="cls-1" d="M35,70C15.7,70,0,54.3,0,35S15.7,0,35,0s35,15.7,35,35-15.7,35-35,35ZM35,2.26C16.95,2.26,2.26,16.95,2.26,35s14.69,32.74,32.74,32.74,32.74-14.69,32.74-32.74S53.05,2.26,35,2.26Z"/>
</svg>