<?xml version="1.0" encoding="UTF-8"?>
<svg id="Capa_1" data-name="Capa 1" xmlns="http://www.w3.org/2000/svg" viewBox="0 0 61.96 61.96">
  <defs>
    <style>
      .cls-1 {
        fill: #fff;
        stroke-width: 0px;
      }
    </style>
  </defs>
  <path class="cls-1" d="M61.96,56.16c-.16.45-.28.93-.5,1.35-.48.95-1.21,1.65-2.34,1.66-1.13,0-1.92-.66-2.34-1.64-.29-.68-.51-1.47-.49-2.21.08-3,.22-6.01.41-9,.23-3.68.53-7.36.8-11.04,0-.12,0-.24,0-.43-.26-.01-.51-.02-.76-.04-1.1-.09-1.86-.76-1.85-1.86.03-4.27-.32-8.56.29-12.81.55-3.84,2.06-7.31,4.37-10.42.15-.2.55-.4.72-.33.19.07.36.46.37.72.04,1.17.02,2.34.02,3.51,0,6.51-.04,13.03.02,19.54.03,2.54.31,5.07.47,7.6.19,3.06.38,6.12.57,9.18.08,1.22.16,2.44.24,3.67v2.54Z"/>
  <path class="cls-1" d="M2.68,49.75c.42-5.45.84-10.89,1.26-16.34.05-.6.12-1.2.15-1.81.05-1.13-.38-2.08-1.32-2.69C.57,27.47-.19,25.47.04,22.89c.32-3.59.46-7.2.68-10.81.02-.32.04-.65.11-.96.11-.46.45-.66.9-.64.43.02.72.25.82.68.04.19.05.4.04.6-.15,3.2-.31,6.41-.47,9.61-.03.52.04,1.03.57,1.21.32.1.82.08,1.05-.11.26-.22.43-.68.44-1.05.08-1.95.11-3.91.15-5.87.03-1.31.07-2.62.11-3.93.02-.72.39-1.13.99-1.13.59,0,.97.4.99,1.12.09,3.1.16,6.21.24,9.31,0,.32.03.65.08.96.09.54.47.81.97.82.5,0,.89-.26,1-.79.04-.17.06-.36.05-.54-.15-3.2-.31-6.4-.47-9.61,0-.04,0-.08,0-.12-.02-.72.28-1.13.85-1.17.57-.04.94.34,1,1.04.05.66.08,1.33.12,1.99.2,3.18.34,6.36.6,9.54.2,2.5-.6,4.45-2.74,5.84-.99.65-1.42,1.64-1.33,2.81.32,4.14.69,8.28.98,12.42.23,3.36.37,6.72.52,10.09.04.94-.19,1.84-.74,2.63-1.12,1.64-3.09,1.65-4.21,0-.59-.85-.75-1.8-.74-2.81.02-1.43,0-2.86,0-4.29.02,0,.05,0,.07,0Z"/>
  <g>
    <path class="cls-1" d="M31.96,13.77c11.28.05,20.51,9.01,20.52,20.51,0,11.44-9.16,20.48-20.5,20.52-11.3.04-20.5-9.18-20.52-20.51-.02-11.3,9.19-20.51,20.51-20.53ZM47.54,34.26c-.04-8.59-7.07-15.59-15.63-15.54-8.59.05-15.55,7.05-15.51,15.58.04,8.62,7.05,15.59,15.61,15.54,8.58-.05,15.56-7.06,15.53-15.59Z"/>
    <path class="cls-1" d="M31.94,45.69c-6.28-.03-11.4-5.17-11.38-11.42.01-6.26,5.18-11.42,11.42-11.39,6.29.03,11.38,5.15,11.37,11.42-.02,6.29-5.16,11.42-11.4,11.39Z"/>
  </g>
</svg>