<?xml version="1.0" encoding="UTF-8"?>
<svg id="Capa_1" data-name="Capa 1" xmlns="http://www.w3.org/2000/svg" viewBox="0 0 61.96 61.96">
  <defs>
    <style>
      .cls-1 {
        fill: #fff;
        stroke-width: 0px;
      }
    </style>
  </defs>
  <path class="cls-1" d="M53.31,25.46c-16.74-.01-33.48,0-50.22,0-1.7,0-2.45.66-2.28,2.37.32,3.27.55,6.59,1.31,9.77,1.61,6.71,4.9,12.5,10.33,16.94.3.24.6.49.96.78-.17.04-.21.06-.24.06-2.14,0-4.28,0-6.42.01-1.39,0-2.19.69-2.2,1.85-.02,1.2.8,1.93,2.24,1.93,12.25,0,24.5,0,36.74,0,1.35,0,2.19-.74,2.2-1.88.01-1.15-.81-1.89-2.16-1.9-2.17-.01-4.35,0-6.87,0,3.89-2.87,6.61-6.35,8.72-10.32.13-.24.61-.35.95-.4,1.66-.24,3.37-.27,4.98-.69,4.53-1.19,8.02-3.71,9.46-8.39,1.6-5.19-2.07-10.12-7.49-10.12ZM56.67,34.67c-.52,1.51-1.51,2.68-2.8,3.58-1.88,1.32-4,1.93-6.23,2.07.67-3.52,1.32-6.98,1.99-10.5,1.44,0,3.1-.22,4.68.05,2.14.38,3.11,2.58,2.35,4.8Z"/>
  <path class="cls-1" d="M23.27,19.51c0,1.42.65,2.18,1.83,2.2,1.17.02,1.92-.77,1.93-2.14.02-4.8.02-4.34,0-9.14,0-1.33-.82-2.2-1.92-2.18-1.12.02-1.84.87-1.84,2.22,0,2.38,0-.5,0,1.89,0,2.38,0,4.77,0,7.15Z"/>
  <path class="cls-1" d="M17.61,21.7c1.14.01,1.88-.77,1.9-2.03.02-1.19,0-2.38,0-3.57s.01-2.38,0-3.57c-.02-1.21-.72-1.99-1.8-2.03-1.14-.04-1.95.73-1.97,1.98-.03,2.42-.03,4.83,0,7.25.01,1.2.78,1.96,1.86,1.97Z"/>
  <path class="cls-1" d="M32.69,21.7c1.06-.04,1.76-.78,1.78-1.92.02-1.23,0-2.45,0-3.68,0-1.23.02-2.45,0-3.68-.02-1.14-.74-1.88-1.79-1.92-1.11-.04-1.94.7-1.95,1.87-.04,2.49-.04,4.97,0,7.46.02,1.19.84,1.91,1.95,1.87Z"/>
</svg>