<?xml version="1.0" encoding="UTF-8"?>
<svg id="Capa_1" data-name="Capa 1" xmlns="http://www.w3.org/2000/svg" viewBox="0 0 61.96 61.96">
  <defs>
    <style>
      .cls-1 {
        fill: #fff;
        stroke-width: 0px;
      }
    </style>
  </defs>
  <g>
    <path class="cls-1" d="M51.15,36.29c.55.22.91.59.87,1.22-.03.52-.45.95-.97,1.02-.48.07-.99-.23-1.17-.7-.19-.47-.04-1.01.37-1.31.12-.09.26-.15.38-.23.17,0,.34,0,.51,0Z"/>
    <path class="cls-1" d="M49.08,41.66c0-.59.45-1.01,1.05-1,.58.01,1.04.47,1.02,1.05-.01.55-.52,1.03-1.07,1.02-.58-.01-1.01-.47-1.01-1.07Z"/>
  </g>
  <g>
    <path class="cls-1" d="M26.97,16.49c3.75,0,7.5,0,11.24,0,1.82,0,2.78,1.09,2.59,2.89-.62,5.9-1.22,11.79-1.83,17.69-.6,5.8-1.21,11.6-1.81,17.4-.09.83-.16,1.65-.26,2.48-.16,1.39-1.09,2.22-2.49,2.22-4.95,0-9.89,0-14.84,0-1.45,0-2.38-.86-2.53-2.32-.84-8.13-1.68-16.25-2.53-24.37-.46-4.48-.92-8.95-1.38-13.43-.15-1.45.91-2.55,2.47-2.56,3.79,0,7.57,0,11.36,0h0ZM38.38,18.99H15.6c1.3,12.6,2.59,25.16,3.88,37.71h15c1.3-12.58,2.59-25.14,3.89-37.71Z"/>
    <path class="cls-1" d="M18.39,26.37h17.17c0,.11.03.2.02.29-.8,7.74-1.59,15.48-2.41,23.22-.17,1.64-1.06,2.86-2.52,3.59-2.44,1.24-4.92,1.18-7.33-.11-1.66-.89-2.45-2.35-2.63-4.23-.74-7.45-1.52-14.9-2.29-22.35-.01-.11-.01-.23-.02-.41Z"/>
  </g>
  <path class="cls-1" d="M55.01,47.01c-1.55.93-2.8.55-3.78-.92-1.69.47-3.33.52-4.65-.83-1.33-1.35-1.19-3.02-.8-4.71-1.63-.81-1.67-2.2-1.32-3.85-.87.07-1.68.08-2.47.21-.55.09-1.09.22-1.61.38-.3,2.9-.6,5.81-.9,8.71.19.27.3.59.31.94,0,.47-.2.91-.54,1.22-.11,1.1-.23,2.21-.34,3.31.09-.02.18-.06.28-.06.65,0,1.2.57,1.19,1.22,0,.63-.55,1.16-1.19,1.18-.18,0-.35-.05-.51-.12-.1.92-.19,1.84-.29,2.77-.05.49-.1.98-.15,1.47.53.29,1.09.55,1.68.75.95.33,1.97.47,2.96.69h1.84c1.04-.25,2.11-.4,3.1-.78,4.47-1.69,7.65-6.16,7.2-11.59ZM41.74,44.22c-.51,0-.93-.43-.93-.95,0-.51.43-.94.93-.94.5,0,.92.43.92.95,0,.52-.42.94-.93.94ZM43.44,49.37c-.57.01-1-.41-1-.98,0-.54.43-.96.97-.96.54,0,.98.43.99.96,0,.53-.43.97-.96.98ZM46.81,54.98c-.86,0-1.59-.74-1.58-1.6.01-.83.74-1.55,1.57-1.55.85,0,1.59.74,1.58,1.6,0,.83-.74,1.55-1.57,1.55Z"/>
</svg>