<?xml version="1.0" encoding="UTF-8"?>
<svg id="Capa_1" data-name="Capa 1" xmlns="http://www.w3.org/2000/svg" viewBox="0 0 61.96 61.96">
  <defs>
    <style>
      .cls-1 {
        fill: #fff;
        stroke-width: 0px;
      }
    </style>
  </defs>
  <path class="cls-1" d="M53.55,33.11c0-.99-.21-1.92-.74-2.75-1.38-2.16-3.43-3.09-5.92-3.16-.87-.02-1.75.01-2.63,0-.82,0-.93-.13-.94-.93,0-.38,0-.75.01-1.13.09-1.82.22-3.64.27-5.46.07-2.54-.94-4.45-3.36-5.52-.32-.14-.62-.43-.82-.73-1.13-1.75-3.16-2.7-5.21-2.3-.71.14-1.1-.07-1.52-.62-2.97-3.94-9.53-3.85-12.44.13-.42.58-.56.62-1.21.38-1.24-.47-2.52-.68-3.84-.42-2.51.49-4.39,1.73-5.14,4.33-.1.34-.33.67-.56.95-1.42,1.7-1.49,4.11-.08,5.82.43.52.59,1.07.58,1.72,0,5.11,0,10.22,0,15.33h-.02c0,5.11,0,10.22,0,15.33,0,.27,0,.54.06.8.46,2.41,2.79,4.27,5.46,4.28,7.41.02,14.83,0,22.24,0,2.75,0,5.74-2.01,5.6-5.61-.06-1.5-.02-3-.02-4.5,0-1.27,0-1.25,1.27-1.28,1.3-.03,2.63.03,3.89-.19,2.98-.54,5.01-2.89,5.04-5.68.03-2.93.01-5.86.02-8.79ZM38.22,56.27c-.75.05-1.5.04-2.25.04-6.64,0-13.29,0-19.93-.01-.6,0-1.2-.11-1.78-.25-.2-.05-.33-.35-.5-.54.21-.08.41-.18.62-.22.17-.04.36-.02.53-.02,7.86,0,15.71,0,23.57,0,.32,0,.65.1,1.04.16-.26.76-.8.82-1.3.85ZM39.12,52.24c-2.37-.01-4.75-.04-7.12-.04-5.91,0-11.82.02-17.73.03-.79,0-.85-.06-.85-.85.02-7.8.05-15.61.06-23.41,0-1.34-.04-2.68-.08-4.02-.02-.5.18-.73.69-.71.46.01.93,0,1.39-.03.51-.03.71.2.72.69,0,.57,0,1.15.11,1.7.1.49.29,1.01.58,1.42,1.87,2.63,6.09,2.87,8.28.49.83-.9,1.14-1.99,1.11-3.2-.03-1.08-.02-1.08,1.08-1.08,3.87.01,7.75.03,11.62.04.75,0,.83.07.83.82,0,4.57,0,9.14,0,13.71h-.02c0,3.79,0,7.57,0,11.36,0,.77.05,1.53.08,2.3.02.71-.05.78-.75.77ZM50.33,33.52c-.11,2.64-.04,5.29-.03,7.93,0,1.97-1.26,3.35-3.25,3.46-.98.05-1.96.03-2.95.03-.64,0-.78-.14-.78-.8,0-2.23,0-4.47,0-6.7h0c0-2.18,0-4.36,0-6.54,0-.79.1-.89.9-.89.88,0,1.75.02,2.63-.01,1.69-.06,3.56,1.57,3.48,3.52Z"/>
  <path class="cls-1" d="M28.11,31.21c-.45-.55-1.72-.71-2.41-.39-.75.35-.95.98-.95,1.76.02,4.57.01,9.14.02,13.71,0,.57-.03,1.15.09,1.71.08.36.32.76.61,1,.52.44,1.16.65,1.84.31.75-.38,1.24-.92,1.24-1.83-.02-2.5,0-5,0-7.5h.01c0-2.52.02-5.03-.02-7.55,0-.41-.17-.89-.43-1.21Z"/>
  <path class="cls-1" d="M21.21,32.57c0-.73-.24-1.33-.92-1.69-1.45-.78-2.84.06-2.84,1.69,0,2.46,0,4.93,0,7.39,0,0,0,0-.01,0,0,.95,0,1.89,0,2.84,0,1.64.02,3.28.03,4.93,0,.6.25,1.07.78,1.37.61.36,1.24.46,1.87.08.69-.41,1.1-.99,1.1-1.83-.01-3.61-.01-7.21-.02-10.82,0-1.32,0-2.64,0-3.96Z"/>
  <path class="cls-1" d="M33.98,30.58c-1.1-.02-1.82.73-1.82,1.92,0,2.52,0,5.03,0,7.55h0c0,2.54,0,5.07,0,7.61,0,1.04.89,1.83,1.93,1.77,1.06-.06,1.85-.91,1.8-1.94-.02-.34-.06-.68-.05-1.01.02-4.64.05-9.28.08-13.92,0-1.16-.76-1.94-1.93-1.96Z"/>
</svg>