<?xml version="1.0" encoding="UTF-8"?>
<svg id="Capa_1" data-name="Capa 1" xmlns="http://www.w3.org/2000/svg" viewBox="0 0 70 70">
  <defs>
    <style>
      .cls-1 {
        fill: #fff;
        stroke-width: 0px;
      }
    </style>
  </defs>
  <path class="cls-1" d="M35,70C15.7,70,0,54.3,0,35S15.7,0,35,0s35,15.7,35,35-15.7,35-35,35ZM35,2.26C16.95,2.26,2.26,16.95,2.26,35s14.69,32.74,32.74,32.74,32.74-14.69,32.74-32.74S53.05,2.26,35,2.26Z"/>
  <g>
    <g>
      <circle class="cls-1" cx="18.29" cy="28.95" r="2.69"/>
      <circle class="cls-1" cx="22.06" cy="35.28" r="2.17"/>
      <circle class="cls-1" cx="17.37" cy="40.52" r="2.4"/>
      <circle class="cls-1" cx="14.79" cy="34.51" r="1.56"/>
      <circle class="cls-1" cx="21.45" cy="51.07" r="1.75"/>
      <circle class="cls-1" cx="26.5" cy="49.24" r="1.97"/>
      <circle class="cls-1" cx="35.19" cy="43.42" r="2.27"/>
      <circle class="cls-1" cx="20.51" cy="46.15" r="1.56"/>
      <circle class="cls-1" cx="19.14" cy="54.63" r="1.07"/>
      <circle class="cls-1" cx="32.06" cy="47.96" r="1.41"/>
      <circle class="cls-1" cx="32.56" cy="38.41" r="1.18"/>
      <circle class="cls-1" cx="38.55" cy="47.76" r="1.21"/>
      <circle class="cls-1" cx="47.97" cy="45.32" r="1.1"/>
      <circle class="cls-1" cx="39.06" cy="34.12" r="1.17"/>
      <circle class="cls-1" cx="49.15" cy="26.56" r="1.34"/>
      <circle class="cls-1" cx="49.95" cy="41.35" r="1.45"/>
      <circle class="cls-1" cx="47.05" cy="35.96" r="1.72"/>
      <circle class="cls-1" cx="35.35" cy="29.49" r="1.59"/>
      <circle class="cls-1" cx="34.78" cy="22.77" r="2.56"/>
      <circle class="cls-1" cx="52.13" cy="31.73" r="2.74"/>
      <circle class="cls-1" cx="54.22" cy="37.97" r="2.55"/>
      <path class="cls-1" d="M28.19,36.44v-3.49h-1.69v3.49c0,1.08-.53,2.07-1.4,2.71-1.02.75-1.65,2.01-1.52,3.41.16,1.76,1.58,3.2,3.33,3.39,2.28.25,4.21-1.53,4.21-3.76,0-1.27-.62-2.39-1.58-3.07-.86-.61-1.35-1.62-1.35-2.67Z"/>
      <path class="cls-1" d="M46.36,27.57c0-2.23-1.93-4.01-4.21-3.76-1.75.19-3.17,1.64-3.33,3.39-.13,1.4.5,2.65,1.52,3.41.87.64,1.4,1.63,1.4,2.71v3.27h1.69v-3.27c0-1.06.49-2.06,1.35-2.67.96-.69,1.58-1.81,1.58-3.07Z"/>
      <path class="cls-1" d="M43.22,38.46c-.21-.04-.42-.05-.63-.05-1.9,0-3.74-.68-5.08-2.03l-4.37-4.37c-1.24-1.24-1.93-2.9-2.02-4.64,0-.12-.02-.24-.04-.36-.25-1.71-1.69-3.06-3.41-3.21-2.36-.2-4.31,1.76-4.1,4.12.16,1.76,1.57,3.2,3.32,3.4.11.01.21.02.32.02,1.83.06,3.6.73,4.89,2.03l4.68,4.68c1.18,1.18,1.89,2.75,2.01,4.41.01.14.03.29.06.43.29,1.55,1.56,2.78,3.11,3.02,2.57.4,4.75-1.8,4.33-4.37-.25-1.57-1.52-2.83-3.08-3.09Z"/>
    </g>
    <circle class="cls-1" cx="29.33" cy="18.47" r="1.36"/>
    <circle class="cls-1" cx="22.34" cy="21.18" r="1.36"/>
    <circle class="cls-1" cx="40.77" cy="18.85" r="1.36"/>
    <circle class="cls-1" cx="47.05" cy="20.98" r="1.36"/>
  </g>
</svg>