<?xml version="1.0" encoding="UTF-8"?>
<svg id="Capa_1" data-name="Capa 1" xmlns="http://www.w3.org/2000/svg" viewBox="0 0 70 70">
  <defs>
    <style>
      .cls-1 {
        fill: #fff;
        stroke-width: 0px;
      }
    </style>
  </defs>
  <g>
    <path class="cls-1" d="M59.1,28.41h-5.89v-12.9l-5.44-6.21h-25.98l-5.44,6.21v12.9h-5.46v13.17h5.46v12.57l5.44,6.21h25.98l5.44-6.21v-12.57h5.89v-13.17ZM26.1,19.06h17.37v9.35h-17.37v-9.35ZM36.36,32.08v5.82h4.71v-2.01h-2.3v-1.97h4.27v4.93l-.89,1.01h-6.77l-.98-1.01v-7.76l.98-.98h6.77l.89.98v1.68h-1.97v-.7h-4.71ZM25.93,39.84h-1.06v-1.97h1.06v-5.79h-1.09v-1.97h4.15v1.97h-1.09v5.79h3.35v-1.02h1.97v2.99h-7.28ZM14.88,38.86v-7.76l.98-.98h6.77l.89.98v7.76l-.89,1.01h-6.77l-.98-1.01ZM43.47,50.6h-17.37v-9.02h17.37v9.02ZM55.12,39.84h-3.68v-1.97h.77l-.3-1h-4.73l-.3,1h.77v1.97h-3.68v-1.97h.86l1.75-5.79h-.84v-1.97h6.18s0,0,0,0l2.35,7.76h.86v1.97Z"/>
    <polygon class="cls-1" points="48.63 32.08 47.77 34.91 51.31 34.91 50.46 32.08 48.63 32.08"/>
    <rect class="cls-1" x="16.84" y="32.08" width="4.71" height="5.82"/>
  </g>
  <path class="cls-1" d="M35,70C15.7,70,0,54.3,0,35S15.7,0,35,0s35,15.7,35,35-15.7,35-35,35ZM35,2.26C16.95,2.26,2.26,16.95,2.26,35s14.69,32.74,32.74,32.74,32.74-14.69,32.74-32.74S53.05,2.26,35,2.26Z"/>
</svg>