<?xml version="1.0" encoding="UTF-8"?>
<svg id="Capa_1" data-name="Capa 1" xmlns="http://www.w3.org/2000/svg" viewBox="0 0 70 70">
  <defs>
    <style>
      .cls-1 {
        fill: #fff;
        stroke-width: 0px;
      }
    </style>
  </defs>
  <g>
    <polygon class="cls-1" points="12.89 18.74 12.89 31.86 22.72 31.86 12.12 51.26 41.14 51.26 41.14 38.52 31.45 38.52 42.5 18.74 12.89 18.74"/>
    <path class="cls-1" d="M56.45,38.51h-9.62l11.05-19.77h-29.61l-.78,32.52h29.02v-12.73h-.07ZM55.98,50.71h-27.91l.75-31.42h28.13l-10.6,18.96-.14.26h-15.92v.55h15.61,0s.94.01.94.01h9.15v11.64Z"/>
  </g>
  <path class="cls-1" d="M35,70C15.7,70,0,54.3,0,35S15.7,0,35,0s35,15.7,35,35-15.7,35-35,35ZM35,2.26C16.95,2.26,2.26,16.95,2.26,35s14.69,32.74,32.74,32.74,32.74-14.69,32.74-32.74S53.05,2.26,35,2.26Z"/>
</svg>