<?xml version="1.0" encoding="UTF-8"?>
<svg id="Capa_1" data-name="Capa 1" xmlns="http://www.w3.org/2000/svg" viewBox="0 0 70 70">
  <defs>
    <style>
      .cls-1 {
        fill: #fff;
        stroke-width: 0px;
      }
    </style>
  </defs>
  <path class="cls-1" d="M35.85,32.47c-1.69-2.26-4.63-6.19-6.54-8.75l-3.48-4.64h-2.66c-2.1,0-2.65.02-2.6.1.07.12,6.22,8.34,18.4,24.62l5.28,7.06h2.66c2.08,0,2.65-.02,2.61-.1-.04-.06-2.44-3.27-5.33-7.14-2.9-3.87-6.64-8.89-8.33-11.14Z"/>
  <path class="cls-1" d="M35,0C15.67,0,0,15.67,0,35s15.67,35,35,35,35-15.67,35-35S54.33,0,35,0ZM48.82,53.43h-5.83l-3.81-5.08c-2.09-2.8-4.53-6.07-5.41-7.25l-1.61-2.16-.2.23c-.11.13-2.86,3.11-6.11,6.62-3.25,3.52-6.16,6.66-6.48,7l-.56.62h-1.71c-1.01.02-1.71-.02-1.69-.06,0-.04,3.3-3.61,7.3-7.95,4.01-4.33,7.43-8.02,7.59-8.21l.3-.34-4.65-6.22c-2.56-3.42-5.96-7.97-7.56-10.11-1.6-2.14-2.9-3.92-2.89-3.94.02-.02,2.66-.03,5.87,0l5.83.04,4.96,6.62,4.95,6.61,4.08-4.41c2.25-2.42,5.01-5.41,6.14-6.64l2.05-2.22h1.75s1.76,0,1.76,0l-.96,1.02c-3.35,3.58-13.22,14.29-13.22,14.34,0,.03,1.53,2.11,3.39,4.6,1.87,2.49,3.97,5.31,4.68,6.26.71.95,2.75,3.68,4.54,6.07,1.79,2.39,3.27,4.38,3.29,4.45.03.09-.94.1-5.79.1Z"/>
</svg>