<?xml version="1.0" encoding="UTF-8"?>
<svg id="Capa_1" data-name="Capa 1" xmlns="http://www.w3.org/2000/svg" viewBox="0 0 70 70">
  <defs>
    <style>
      .cls-1 {
        fill: #fff;
        stroke-width: 0px;
      }
    </style>
  </defs>
  <g>
    <path class="cls-1" d="M56.48,14.28l-21.24,13.06c-.15.09-.33.09-.48,0L13.52,14.28c-.3-.19-.69.03-.69.39v9.38c0,.48.25.93.66,1.18l20.37,12.53c.7.43,1.58.43,2.28,0l20.37-12.53c.41-.25.66-.7.66-1.18v-9.38c0-.36-.39-.57-.69-.39Z"/>
    <path class="cls-1" d="M56.51,40.64l-9.49-5.84c-.33-.2-.74-.2-1.07,0l-7.62,4.68c-.35.21-.35.72,0,.94l18.15,11.16c.3.19.69-.03.69-.39v-9.38c0-.48-.25-.93-.66-1.18Z"/>
    <path class="cls-1" d="M31.67,39.48l-7.62-4.68c-.33-.2-.74-.2-1.07,0l-9.49,5.84c-.41.25-.66.7-.66,1.18v9.38c0,.36.39.57.69.39l18.15-11.16c.35-.21.35-.72,0-.94Z"/>
  </g>
  <path class="cls-1" d="M35,70C15.7,70,0,54.3,0,35S15.7,0,35,0s35,15.7,35,35-15.7,35-35,35ZM35,2.26C16.95,2.26,2.26,16.95,2.26,35s14.69,32.74,32.74,32.74,32.74-14.69,32.74-32.74S53.05,2.26,35,2.26Z"/>
</svg>