<?xml version="1.0" encoding="UTF-8"?>
<svg id="Capa_1" data-name="Capa 1" xmlns="http://www.w3.org/2000/svg" viewBox="0 0 70 70">
  <defs>
    <style>
      .cls-1 {
        fill: #fff;
        stroke-width: 0px;
      }
    </style>
  </defs>
  <path class="cls-1" d="M40.7,34.76l-9.23-5.02c-.38-.22-1.67.06-1.67.49v9.79c0,.43,1.28.7,1.66.5l9.64-4.77c.39-.21-.01-.77-.4-.99Z"/>
  <path class="cls-1" d="M35,0C15.67,0,0,15.67,0,35s15.67,35,35,35,35-15.67,35-35S54.33,0,35,0ZM53.74,40c0,4.64-3.76,8.4-8.4,8.4h-21.49c-4.64,0-8.4-3.76-8.4-8.4v-10c0-4.64,3.76-8.4,8.4-8.4h21.49c4.64,0,8.4,3.76,8.4,8.4v10Z"/>
</svg>