<?xml version="1.0" standalone="no"?>
<!DOCTYPE svg PUBLIC "-//W3C//DTD SVG 20010904//EN"
 "http://www.w3.org/TR/2001/REC-SVG-20010904/DTD/svg10.dtd">
<svg version="1.0" xmlns="http://www.w3.org/2000/svg"
 width="505.000000pt" height="505.000000pt" viewBox="0 0 505.000000 505.000000"
 preserveAspectRatio="xMidYMid meet">
<metadata>
Created by potrace 1.14, written by Peter Selinger 2001-2017
</metadata>
<g transform="translate(0.000000,505.000000) scale(0.100000,-0.100000)"
fill="#000000" stroke="none">
<path d="M3760 4191 c-25 -5 -64 -11 -86 -14 -23 -4 -82 -16 -130 -28 -488
-118 -1060 -436 -1518 -845 -124 -111 -276 -259 -276 -270 0 -5 96 -9 219 -9
l218 0 109 91 c162 134 278 220 469 348 104 70 98 66 230 144 355 211 745 348
1014 356 151 5 280 -34 356 -109 36 -35 79 -116 90 -170 7 -36 7 -148 -1 -190
-23 -128 -55 -223 -130 -383 -19 -39 -34 -76 -34 -81 0 -12 96 -7 112 7 20 16
90 152 127 244 122 307 95 571 -74 740 -79 79 -190 134 -330 163 -49 11 -316
15 -365 6z"/>
<path d="M1249 3703 c-1 -16 -1 -31 -1 -34 1 -3 -14 -34 -31 -69 -46 -93 -135
-154 -241 -166 -12 -1 -23 -3 -25 -3 -2 -1 2 -8 9 -16 7 -8 25 -15 41 -15 80
0 193 -92 228 -185 12 -31 20 -59 20 -63 -4 -24 3 -42 16 -42 10 0 15 10 15
33 0 46 51 147 94 184 45 41 81 59 131 69 22 5 43 9 48 10 4 1 11 2 17 3 5 0
7 7 4 14 -2 7 -21 14 -42 15 -54 4 -138 49 -177 94 -43 51 -64 94 -71 152 -7
51 -33 65 -35 19z"/>
<path d="M904 2935 c-20 -13 -21 -24 -22 -249 0 -233 0 -235 21 -238 12 -2 32
-2 44 0 22 4 23 8 25 163 l3 158 130 -159 c72 -88 138 -162 147 -165 10 -4 26
-1 38 5 20 11 20 18 18 248 l-3 237 -30 1 c-55 1 -54 4 -52 -167 1 -87 0 -159
-3 -159 -3 0 -19 20 -37 43 -17 23 -43 56 -57 72 -13 17 -55 68 -93 114 -84
103 -101 116 -129 96z"/>
<path d="M3575 2940 c-54 -12 -105 -42 -140 -82 -144 -168 -18 -425 202 -414
62 3 128 31 163 68 26 28 26 30 -10 57 l-30 22 -37 -28 c-49 -38 -141 -40
-191 -5 -112 80 -81 257 51 293 48 13 109 -1 143 -33 l22 -20 33 31 34 31 -25
21 c-59 49 -149 74 -215 59z"/>
<path d="M4445 2940 c-66 -15 -139 -71 -169 -129 -24 -46 -34 -124 -21 -172
22 -90 80 -154 164 -184 206 -72 400 150 306 349 -46 97 -175 160 -280 136z
m132 -103 c76 -40 108 -158 61 -226 -32 -48 -68 -72 -116 -78 -53 -7 -83 1
-122 33 -42 36 -63 79 -62 132 3 119 132 194 239 139z"/>
<path d="M432 2924 c-14 -10 -16 -43 -17 -220 -1 -116 3 -219 9 -231 6 -15 18
-23 35 -24 14 0 95 -1 179 -2 l152 -2 0 45 0 46 -143 -1 -144 -1 -1 57 -1 56
135 -1 134 -1 0 38 c0 20 0 40 0 45 0 4 -59 7 -132 7 l-132 0 -3 56 -3 56 145
-1 c131 -1 145 1 146 17 2 22 2 55 0 65 -2 13 -341 9 -359 -4z"/>
<path d="M1592 2929 c-15 -6 -22 -17 -23 -36 0 -15 -1 -115 -1 -221 0 -164 2
-196 15 -210 13 -12 39 -15 126 -15 98 0 116 3 163 26 178 88 185 332 12 433
-41 24 -56 27 -158 29 -61 1 -122 -2 -134 -6z m261 -109 c93 -64 88 -205 -9
-262 -32 -19 -162 -33 -180 -19 -6 3 -10 74 -9 157 l0 152 81 -2 c68 -2 88 -6
117 -26z"/>
<path d="M2039 2930 c-6 -41 -2 -73 11 -79 8 -4 41 -6 73 -5 52 2 57 1 58 -19
0 -30 0 -213 0 -257 l-1 -36 -70 1 c-44 1 -70 -2 -71 -9 -8 -84 -16 -81 183
-79 95 1 178 2 184 2 7 1 11 19 10 44 l-1 42 -70 0 -70 0 -3 156 -2 157 63 -1
c35 0 69 3 75 7 7 4 11 23 9 44 l-2 37 -188 0 c-103 0 -187 -2 -188 -5z"/>
<path d="M2510 2920 c-13 -13 -15 -48 -15 -245 l0 -230 39 2 c21 1 40 4 43 7
3 3 6 39 6 81 l0 75 56 0 56 0 56 -83 c53 -77 59 -82 90 -80 19 1 42 2 52 2
17 1 17 3 -3 29 -12 15 -39 52 -61 82 l-40 55 23 10 c101 44 124 194 42 266
-43 37 -69 43 -198 44 -106 1 -133 -2 -146 -15z m275 -90 c43 -35 38 -106 -8
-127 -12 -6 -60 -10 -107 -9 l-85 1 -1 77 -1 76 92 -1 c64 -2 98 -7 110 -17z"/>
<path d="M2984 2919 c-11 -12 -14 -58 -14 -232 l0 -216 28 -13 c23 -12 166
-15 330 -9 19 1 22 6 22 44 l0 43 -142 -1 -143 0 -5 35 c-12 79 -13 78 122 77
71 -1 127 2 135 8 9 7 13 24 11 45 l-3 35 -129 0 c-145 0 -145 0 -138 74 l4
39 121 0 c184 0 167 -4 167 45 l0 42 -176 0 c-147 0 -178 -3 -190 -16z"/>
<path d="M3829 2925 c-1 -5 -2 -25 -3 -42 -1 -37 -5 -36 102 -35 l62 1 0 -200
c0 -109 3 -199 8 -200 52 -5 73 -2 76 11 3 8 5 83 5 165 -1 83 0 166 0 186 l1
37 76 -2 c78 -1 92 6 88 44 -1 8 -2 22 -3 30 -1 13 -31 15 -206 15 -132 0
-205 -3 -206 -10z"/>
<path d="M3645 2207 c-305 -310 -630 -566 -1015 -797 -276 -165 -653 -325
-834 -354 -21 -4 -41 -8 -45 -10 -14 -9 -150 -19 -233 -18 -282 3 -427 142
-414 397 6 116 32 219 84 338 14 31 22 60 19 64 -4 3 -54 6 -113 6 -80 0 -108
-4 -115 -14 -11 -19 -36 -130 -49 -221 -50 -352 69 -602 329 -690 52 -17 90
-22 181 -22 63 -1 138 3 165 7 413 66 1001 389 1640 901 55 44 102 83 105 86
3 3 37 32 75 65 39 32 77 66 86 75 9 8 57 52 107 98 86 79 192 181 192 186 0
1 -15 3 -32 4 -29 1 -44 -10 -133 -101z"/>
<path d="M454 2264 c-46 -16 -74 -46 -74 -81 0 -56 26 -73 142 -93 76 -14 96
-25 103 -58 3 -15 -3 -27 -20 -38 -32 -21 -121 -25 -170 -8 -50 17 -52 17 -59
-2 -7 -19 40 -40 109 -47 128 -14 209 51 168 135 -13 27 -46 42 -113 53 -100
16 -120 25 -120 55 0 48 103 73 183 45 34 -12 38 -11 47 6 9 16 5 20 -32 30
-63 17 -119 18 -164 3z"/>
<path d="M1783 2267 c-5 -7 -23 -46 -40 -87 -17 -41 -47 -112 -67 -157 -35
-82 -35 -83 -13 -83 20 0 31 19 79 133 l57 132 16 -40 c9 -22 20 -49 25 -60 5
-11 23 -51 39 -89 19 -45 36 -73 50 -78 23 -8 28 8 12 40 -15 28 -55 121 -91
209 -34 82 -51 102 -67 80z"/>
<path d="M1995 2269 c-4 -5 -7 -80 -7 -166 0 -117 4 -158 13 -164 8 -4 16 -6
18 -3 3 3 6 60 7 127 1 67 2 124 3 127 1 3 26 -33 57 -80 31 -47 57 -86 58
-88 2 -1 31 39 65 90 l61 93 -2 -133 c-3 -131 -3 -132 20 -132 22 0 22 1 22
159 0 126 -3 161 -14 171 -12 9 -21 4 -46 -32 -18 -24 -46 -66 -63 -95 -18
-29 -35 -53 -38 -53 -4 0 -33 40 -65 90 -59 89 -78 108 -89 89z"/>
<path d="M710 2250 c0 -18 7 -20 60 -20 l60 0 0 -145 c0 -138 1 -145 20 -145
19 0 20 7 20 145 l0 145 60 0 c53 0 60 2 60 20 0 19 -7 20 -140 20 -133 0
-140 -1 -140 -20z"/>
<path d="M1037 2263 c-4 -3 -7 -78 -7 -165 0 -151 1 -158 20 -158 18 0 20 7
20 60 l0 60 48 0 c47 0 48 -1 87 -60 29 -44 46 -60 63 -60 26 0 26 0 -24 71
l-32 47 23 10 c75 35 75 156 -1 190 -26 13 -186 17 -197 5z m191 -50 c30 -26
33 -71 6 -97 -11 -12 -35 -16 -88 -16 -40 0 -75 2 -77 4 -2 2 -2 32 -1 65 l4
61 68 0 c50 0 73 -5 88 -17z"/>
<path d="M1356 2253 c-8 -31 -6 -302 3 -307 7 -5 164 -9 229 -7 15 1 22 7 22
21 0 18 -7 19 -107 18 l-108 -2 0 55 0 54 98 -1 c92 0 97 1 97 20 0 20 -5 21
-100 19 l-100 -2 0 54 0 54 107 3 c93 3 108 5 111 21 3 15 -8 17 -122 17 -110
0 -125 -2 -130 -17z"/>
</g>
</svg>
